<svg width="16" height="16" viewBox="0 0 16 16" fill="none" xmlns="http://www.w3.org/2000/svg">
<path fill-rule="evenodd" clip-rule="evenodd" d="M8.70727 2.62639C8.31675 2.23586 7.68358 2.23586 7.29306 2.62639C6.90253 3.01691 6.90253 3.65008 7.29306 4.0406L10.2526 7.00016H3.3335C2.78121 7.00016 2.3335 7.44788 2.3335 8.00016C2.3335 8.55245 2.78121 9.00016 3.3335 9.00016H10.2526L7.29306 11.9597C6.90253 12.3502 6.90253 12.9834 7.29306 13.3739C7.68358 13.7645 8.31675 13.7645 8.70727 13.3739L13.3736 8.7076L13.3739 8.70727M13.591 7.61738C13.5422 7.49943 13.4698 7.38893 13.3739 7.29306L8.70727 2.62639M13.3761 8.70515C13.5558 8.52435 13.6668 8.27523 13.6668 8.00016C13.6668 7.86457 13.6398 7.73529 13.591 7.61738" fill="#22A75D"/>
</svg>
