<svg width="16" height="16" viewBox="0 0 16 16" fill="none" xmlns="http://www.w3.org/2000/svg">
<path fill-rule="evenodd" clip-rule="evenodd" d="M8.70678 2.62639C8.31626 2.23587 7.68309 2.23587 7.29257 2.62639C6.90204 3.01691 6.90204 3.65008 7.29257 4.0406L10.2521 7.00016H3.33301C2.78072 7.00016 2.33301 7.44788 2.33301 8.00016C2.33301 8.55245 2.78072 9.00016 3.33301 9.00016H10.2521L7.29257 11.9597C6.90204 12.3502 6.90204 12.9834 7.29257 13.3739C7.68309 13.7645 8.31626 13.7645 8.70678 13.3739L13.3731 8.7076L13.3734 8.70727M13.5905 7.61738C13.5417 7.49943 13.4693 7.38893 13.3734 7.29306L8.70678 2.62639M13.3756 8.70515C13.5553 8.52435 13.6663 8.27523 13.6663 8.00016C13.6663 7.86457 13.6394 7.73529 13.5905 7.61738" fill="#2278D4"/>
</svg>
