<svg width="53" height="34" viewBox="0 0 53 34" fill="none" xmlns="http://www.w3.org/2000/svg">
<path d="M10.2148 12.1997H0.298828L10.7657 33.6843H20.6816L10.2148 12.1997Z" fill="#0B92D2"/>
<path d="M30.5976 6.69141H20.6816L31.883 33.6848H41.799L30.5976 6.69141Z" fill="#137BC0"/>
<path d="M20.6817 6.69141H30.5977L20.6817 33.6848H10.7657L20.6817 6.69141Z" fill="#0E763F"/>
<path fill-rule="evenodd" clip-rule="evenodd" d="M15.0283 22.0806L10.7656 33.6846H20.6816L15.0283 22.0806Z" fill="#FFD100"/>
<path fill-rule="evenodd" clip-rule="evenodd" d="M10.7656 33.6846H20.6816L15.0283 22.0806L10.7656 33.6846Z" fill="#FFD100"/>
<path d="M43.084 0.814941H53L41.615 33.6845H31.6991L43.084 0.814941Z" fill="#E20613"/>
<path fill-rule="evenodd" clip-rule="evenodd" d="M36.294 20.4189L31.7828 33.4434L31.8828 33.6846H41.7988L41.6987 33.4434L36.294 20.4189Z" fill="#0E4B9C"/>
<path fill-rule="evenodd" clip-rule="evenodd" d="M41.6152 33.6846L41.6987 33.4434L36.294 20.4189L31.7828 33.4434L31.6992 33.6846H41.6152Z" fill="#0E4B9C"/>
</svg>
