<svg width="24" height="24" viewBox="0 0 24 24" fill="none" xmlns="http://www.w3.org/2000/svg">
<g clip-path="url(#clip0_216_706)">
<path d="M1.32719 12.4L4.88719 15L3.53519 19.187C3.3167 19.8363 3.31394 20.539 3.5273 21.19C3.74067 21.8411 4.15874 22.4058 4.71919 22.8C5.27005 23.2067 5.93759 23.4247 6.62235 23.4212C7.30711 23.4178 7.97244 23.1932 8.51919 22.781L12.0002 20.219L15.4822 22.778C16.032 23.1824 16.696 23.4021 17.3786 23.4054C18.0611 23.4087 18.7272 23.1955 19.281 22.7965C19.8347 22.3974 20.2477 21.833 20.4605 21.1844C20.6733 20.5359 20.6749 19.8365 20.4652 19.187L19.1132 15L22.6732 12.4C23.2223 11.9985 23.6306 11.4337 23.8395 10.7863C24.0485 10.139 24.0476 9.44214 23.8369 8.79534C23.6262 8.14854 23.2164 7.58488 22.6662 7.18486C22.116 6.78484 21.4535 6.56892 20.7732 6.56796H16.4002L15.0732 2.43195C14.8645 1.78091 14.4545 1.21297 13.9022 0.81002C13.3499 0.407071 12.6839 0.189941 12.0002 0.189941C11.3165 0.189941 10.6505 0.407071 10.0982 0.81002C9.54593 1.21297 9.13587 1.78091 8.92719 2.43195L7.60019 6.56796H3.23119C2.55094 6.56892 1.88838 6.78484 1.33817 7.18486C0.787961 7.58488 0.378234 8.14854 0.167514 8.79534C-0.043205 9.44214 -0.0441377 10.139 0.16485 10.7863C0.373837 11.4337 0.782054 11.9985 1.33119 12.4H1.32719Z" fill="#191F30"/>
</g>
<defs>
<clipPath id="clip0_216_706">
<rect width="24" height="24" fill="white"/>
</clipPath>
</defs>
</svg>
