<svg width="20" height="16" viewBox="0 0 20 16" fill="none" xmlns="http://www.w3.org/2000/svg">
<path d="M19.1673 0.499591C18.3693 1.06249 17.4857 1.49302 16.5506 1.77459C16.0488 1.19752 15.3818 0.788501 14.6398 0.602862C13.8979 0.417224 13.1169 0.46392 12.4024 0.736635C11.6879 1.00935 11.0744 1.49493 10.6448 2.12769C10.2153 2.76045 9.9904 3.50987 10.0007 4.27459V5.10792C8.53618 5.1459 7.08505 4.8211 5.77649 4.16246C4.46794 3.50382 3.34258 2.53179 2.50065 1.33292C2.50065 1.33292 -0.832682 8.83292 6.66732 12.1663C4.95109 13.3312 2.90662 13.9154 0.833984 13.8329C8.33398 17.9996 17.5006 13.8329 17.5006 4.24959C17.4999 4.01747 17.4776 3.78592 17.434 3.55792C18.2845 2.71917 18.8847 1.66018 19.1673 0.499591Z" fill="white"/>
</svg>
